# xmcd
#
# Track frame offsets: 
#        150
#        13220
#        25912
#        38629
#        52352
#        64045
#        76491
#        89095
#        96542
#        107936
#        120251
#        132053
#        142458
#        153972
#        168526
#        179325
#        191644
#        204649
#        216044
#        229151
#
# Disc length: 3221 seconds
#
# Revision: 1
# Processed by: cddbd v1.5.2PL0 Copyright (c) Steve Scherf et al.
# Submitted via: ExactAudioCopy v0.95b4
#
DISCID=2b0c9314
DTITLE=Various Artist - Roots Of Country and Western
DYEAR=1900
DGENRE=Country
TTITLE0=Hank Williams - Jambalaya (On The Bayou)
TTITLE1=Tex Ritter - High Noon (Do Not Forsake Me)
TTITLE2=Hank Snow - I'm Movin' On
TTITLE3=Red Foley , Ernest Tubb with The Sunshine Trio - Goodnight Ire
TTITLE3=ne
TTITLE4=Tennessee Ernie Ford - The Shotgun Boogie
TTITLE5=Skeets McDonald - Don't Let The Stars Get In Your Eyes
TTITLE6=Red Foley - Chattanoogie Shoe Shine Boy
TTITLE7=Tex Williams and His Western Caravan - Steel Guitar Rag
TTITLE8=Margaret Whiting and Jimmy Wakely - Broken Down Merry-Go-Round
TTITLE9=Hank Thompson - The Wild Side Of Live
TTITLE10=Kay Starr and Tennessee Ernie Ford - I'll Never Be Free
TTITLE11=Roy Hogsed - Roll' Em Dice
TTITLE12='Ramblin' Jimmie Dolan - Hot Rod Race
TTITLE13=Tennessee Ernie Ford - The Cry Of The Wild Goose
TTITLE14=Hank Williams - Why Don't You Love Me
TTITLE15=Leon Payne - I Love You Because
TTITLE16=Eddy Arnold - Take Me In Your Arms And Hold Me
TTITLE17=Tex Ritter - Have I Told You Lately That I Love You
TTITLE18=Tex Williams - Smoke Smoke Smoke That Cigarette
TTITLE19=Jack Guthrie - Oklahoma Hills
EXTD=
EXTT0=
EXTT1=
EXTT2=
EXTT3=
EXTT4=
EXTT5=
EXTT6=
EXTT7=
EXTT8=
EXTT9=
EXTT10=
EXTT11=
EXTT12=
EXTT13=
EXTT14=
EXTT15=
EXTT16=
EXTT17=
EXTT18=
EXTT19=
PLAYORDER=
